# xmcd CD database file
#
# Track frame offsets:
#	150
#	15696
#	31201
#	53572
#	69080
#	84686
#	100083
#	114577
#	127772
#	144376
#	160204
#	174531
#
# Disc length: 2539 seconds
#
# Revision: 0
# Processed by: cddbd v1.5.1PL0 Copyright (c) Steve Scherf et al.
# Submitted via: CDex 1.51
#
DISCID=8d09e90c
DTITLE=Jim Morris - Land Of No Mondays
DYEAR=1900
DGENRE=Country
TTITLE0=Land Of No Mondays
TTITLE1=What A Party
TTITLE2=The Island Band
TTITLE3=Maybe Mexico
TTITLE4=Drinking Song #46
TTITLE5=To See Her Now
TTITLE6=Guarding The Yucatan
TTITLE7=Victim Of Life's Circumstances
TTITLE8=Tragic Cajun Love Song
TTITLE9=Oh Montana
TTITLE10=It Ain't Easy
TTITLE11=Egrets, No Regrets
EXTD=
EXTT0=
EXTT1=
EXTT2=
EXTT3=
EXTT4=
EXTT5=
EXTT6=
EXTT7=
EXTT8=
EXTT9=
EXTT10=
EXTT11=
PLAYORDER=
